<?xml version="1.0" encoding="utf-8"?>
<!-- Generator: Adobe Illustrator 22.0.1, SVG Export Plug-In . SVG Version: 6.00 Build 0)  -->
<svg version="1.1" id="Layer_1" xmlns="http://www.w3.org/2000/svg" xmlns:xlink="http://www.w3.org/1999/xlink" x="0px" y="0px"
	 viewBox="0 0 900 600" style="enable-background:new 0 0 900 600;" xml:space="preserve">
<style type="text/css">
	.st0{fill:#FFFFFF;}
	.st1{fill:#BC002D;}
	.st2{display:none;}
	.st3{display:inline;}
	.st4{display:inline;clip-path:url(#SVGID_2_);fill:#FF0000;}
	.st5{display:inline;clip-path:url(#SVGID_2_);fill:#FFFFFF;}
</style>
<rect class="st0" width="900" height="600"/>
<circle class="st1" cx="450" cy="300" r="180"/>
<g class="st2">
	<defs>
		<rect id="SVGID_1_" x="439.5" width="600" height="600"/>
	</defs>
	<clipPath id="SVGID_2_" class="st3">
		<use xlink:href="#SVGID_1_"  style="overflow:visible;"/>
	</clipPath>
	<path class="st4" d="M-160.5,0h300l12.4,12.4h575.3L739.5,0h300v600h-300l-12.4-12.4H151.9L139.5,600h-300V0z"/>
	<path class="st5" d="M139.5,0h600v600h-600V0z M450.7,553.8l-5.6-107.9c-0.3-6.6,4.8-12.1,11.3-12.4c0.9,0,1.7,0,2.6,0.2
		l107.4,18.9l-14.5-40c-1.2-3.3-0.2-6.9,2.5-9.1L672,308.1l-26.5-12.4c-3.7-1.7-5.5-6-4.3-9.9l23.3-71.5l-67.8,14.4
		c-3.8,0.8-7.6-1.2-9.1-4.8l-13.1-30.9l-52.9,56.8c-3.1,3.3-8.2,3.4-11.5,0.3c-2-1.9-2.9-4.7-2.4-7.4l25.5-131.5l-40.9,23.6
		c-3.9,2.3-8.8,1-11.1-2.9c-0.1-0.2-0.2-0.3-0.3-0.5L439.5,50L398,131.5c-2,4-6.9,5.6-10.9,3.6c-0.2-0.1-0.3-0.2-0.5-0.3l-40.9-23.6
		l25.5,131.5c0.8,4.4-2,8.7-6.4,9.5c-2.7,0.5-5.5-0.4-7.4-2.4l-52.9-56.8L291.4,224c-1.5,3.6-5.3,5.5-9.1,4.8l-67.7-14.4l23.3,71.5
		c1.3,3.9-0.5,8.1-4.3,9.9L207,308.1l117.6,95.3c2.7,2.2,3.7,5.9,2.5,9.1l-14.5,40L420,433.6c6.5-1.1,12.6,3.2,13.7,9.7
		c0.1,0.8,0.2,1.7,0.2,2.6l-5.6,107.9H450.7z"/>
</g>
<path class="st0" d="M451.6,414.8c1.9,0,3.4-1.6,3.3-3.5l-2.4-45.7c-0.1-3,2.2-5.5,5.2-5.7c0.4,0,0.8,0,1.2,0.1l47.9,8.4
	c0.5,0.1,0.9-0.4,0.7-0.8l-6.2-17.2c-0.5-1.5-0.1-3.2,1.1-4.2l52.8-42.8c0.4-0.3,0.3-0.9-0.1-1.1l-11.2-5.2
	c-1.7-0.8-2.5-2.7-1.9-4.5l10.3-31.5c0.2-0.5-0.3-0.9-0.7-0.8l-29.8,6.3c-1.7,0.4-3.5-0.5-4.2-2.2l-5.6-13.2c-0.2-0.4-0.7-0.5-1-0.2
	l-23.4,25.2c-1.4,1.5-3.8,1.5-5.2,0.1c-0.9-0.9-1.3-2.1-1.1-3.4l11.4-58.6c0.1-0.5-0.5-0.9-0.9-0.7l-17.4,10.1c-1.8,1-4,0.4-5.1-1.3
	c0-0.1-0.1-0.1-0.1-0.2l-18.4-36c-0.2-0.5-0.9-0.5-1.1,0l-18.4,36c-0.9,1.8-3.1,2.6-5,1.7c-0.1,0-0.1-0.1-0.2-0.1l-17.4-10.1
	c-0.5-0.3-1,0.1-0.9,0.7l11.4,58.6c0.4,2-0.9,3.9-2.9,4.3c-1.2,0.2-2.5-0.2-3.4-1.1l-23.4-25.2c-0.3-0.3-0.9-0.2-1,0.2l-5.6,13.2
	c-0.7,1.6-2.4,2.5-4.2,2.2l-29.8-6.3c-0.5-0.1-0.9,0.4-0.7,0.8l10.3,31.5c0.6,1.8-0.2,3.7-1.9,4.5l-11.2,5.2
	c-0.4,0.2-0.5,0.8-0.1,1.1l52.8,42.8c1.2,1,1.7,2.7,1.1,4.2l-6.2,17.2c-0.2,0.5,0.2,0.9,0.7,0.8l47.9-8.4c2.9-0.5,5.7,1.5,6.3,4.4
	c0.1,0.4,0.1,0.8,0.1,1.2l-2.4,45.7c-0.1,1.9,1.4,3.5,3.3,3.5H451.6z"/>
</svg>
